<?xml version="1.0" standalone="no"?>
<!DOCTYPE svg PUBLIC "-//W3C//DTD SVG 20010904//EN"
 "http://www.w3.org/TR/2001/REC-SVG-20010904/DTD/svg10.dtd">
<svg version="1.0" xmlns="http://www.w3.org/2000/svg"
 width="1280.000000pt" height="720.000000pt" viewBox="0 0 1280.000000 720.000000"
 preserveAspectRatio="xMidYMid meet">
<metadata>
Created by potrace 1.15, written by Peter Selinger 2001-2017
</metadata>
<g transform="translate(0.000000,720.000000) scale(0.100000,-0.100000)"
fill="#000000" stroke="none">
<path d="M4290 5980 c-167 -29 -302 -144 -372 -318 l-23 -57 -3 -2000 c-2
-1413 1 -2015 9 -2053 17 -85 72 -182 137 -244 65 -62 110 -88 197 -114 56
-16 178 -17 2035 -11 1809 5 1980 7 2030 22 90 28 151 64 221 132 72 69 107
126 136 218 17 57 18 146 18 2035 0 1889 -1 1978 -18 2035 -29 92 -64 149
-138 220 -78 75 -162 119 -259 134 -77 13 -3899 13 -3970 1z m2650 -620 c294
-26 510 -117 694 -291 180 -170 289 -390 332 -674 33 -210 3 -517 -69 -705
-121 -320 -373 -575 -667 -675 -166 -57 -191 -59 -798 -64 l-562 -6 -3 -678
-2 -677 -395 0 -395 0 -3 1877 c-1 1033 0 1884 3 1891 6 15 1687 17 1865 2z"/>
<path d="M5870 4716 c0 -3 0 -255 0 -558 l0 -553 437 1 c413 1 442 3 517 23
172 46 287 153 338 314 28 89 36 308 14 400 -48 203 -165 303 -416 354 -56 11
-176 16 -482 20 -225 3 -408 2 -408 -1z"/>
</g>
</svg>
