<?xml version="1.0" standalone="no"?>
<!DOCTYPE svg PUBLIC "-//W3C//DTD SVG 20010904//EN"
 "http://www.w3.org/TR/2001/REC-SVG-20010904/DTD/svg10.dtd">
<svg version="1.0" xmlns="http://www.w3.org/2000/svg"
 width="963.000000pt" height="1280.000000pt" viewBox="0 0 963.000000 1280.000000"
 preserveAspectRatio="xMidYMid meet">
<metadata>
Created by potrace 1.15, written by Peter Selinger 2001-2017
</metadata>
<g transform="translate(0.000000,1280.000000) scale(0.100000,-0.100000)"
fill="#000000" stroke="none">
<path d="M4560 12462 l0 -339 -257 -6 c-1056 -25 -2018 -352 -2742 -930 -155
-125 -417 -384 -539 -535 -617 -761 -947 -1740 -1012 -3002 -5 -107 -10 -230
-10 -272 l0 -77 118 76 c211 135 522 278 747 343 108 32 280 67 388 81 145 17
454 7 582 -21 224 -47 467 -154 655 -288 113 -81 319 -277 415 -396 38 -48 72
-85 76 -84 3 2 29 31 57 64 162 196 462 388 767 492 178 61 426 113 600 127
44 3 97 8 118 11 l37 6 0 -3394 0 -3394 -28 -45 c-99 -154 -312 -308 -488
-353 -76 -20 -201 -20 -270 -2 -77 20 -185 81 -252 142 -152 138 -298 394
-402 708 -52 157 -132 225 -250 214 -67 -7 -116 -46 -155 -123 -29 -58 -30
-65 -30 -195 0 -107 5 -156 24 -235 116 -492 394 -833 787 -965 275 -93 525
-85 872 29 332 109 539 273 602 480 20 64 21 88 20 1461 -1 767 -5 2351 -9
3520 -5 1169 -7 2127 -4 2130 6 7 66 1 203 -21 583 -95 1050 -291 1379 -580
l94 -82 36 44 c284 344 587 564 936 678 176 57 332 81 536 81 266 0 502 -43
769 -140 164 -59 434 -195 579 -290 l124 -81 -7 193 c-64 1816 -671 3090
-1846 3875 -710 474 -1689 752 -2652 753 l-158 0 0 340 0 340 -205 0 -205 0 0
-338z"/>
</g>
</svg>
