<?xml version="1.0" standalone="no"?>
<!DOCTYPE svg PUBLIC "-//W3C//DTD SVG 20010904//EN"
 "http://www.w3.org/TR/2001/REC-SVG-20010904/DTD/svg10.dtd">
<svg version="1.0" xmlns="http://www.w3.org/2000/svg"
 width="927.000000pt" height="1280.000000pt" viewBox="0 0 927.000000 1280.000000"
 preserveAspectRatio="xMidYMid meet">
<metadata>
Created by potrace 1.15, written by Peter Selinger 2001-2017
</metadata>
<g transform="translate(0.000000,1280.000000) scale(0.100000,-0.100000)"
fill="#000000" stroke="none">
<path d="M5548 12783 c-26 -29 -45 -75 -57 -133 -8 -41 -12 -799 -14 -2825 -2
-3092 -9 -2823 67 -2859 35 -17 110 -17 1404 -7 2409 20 2133 15 2189 42 56
28 87 77 103 158 6 34 10 810 10 2149 0 1372 4 2240 12 2509 17 594 -3 875
-69 953 l-25 30 -1802 0 c-1705 0 -1804 -1 -1818 -17z"/>
<path d="M1980 12106 c-628 -98 -1082 -626 -1081 -1256 0 -218 43 -398 139
-584 174 -339 493 -581 872 -663 119 -25 391 -25 510 0 636 137 1065 712 1009
1355 -27 304 -152 574 -367 789 -172 172 -407 298 -647 348 -107 22 -327 28
-435 11z"/>
<path d="M2159 9355 c-117 -16 -285 -71 -391 -127 -404 -216 -626 -637 -578
-1099 16 -157 682 -3476 720 -3590 99 -297 314 -543 584 -670 98 -46 226 -84
330 -98 52 -7 541 -11 1496 -11 l1419 0 4 -1578 c3 -1713 0 -1614 57 -1765
121 -321 500 -493 841 -380 204 67 346 215 421 438 l23 70 3 2070 c3 2231 4
2142 -48 2305 -82 250 -263 460 -483 560 -55 24 -134 51 -232 76 -16 4 -547
10 -1180 13 l-1150 6 -287 1430 c-157 787 -298 1474 -314 1528 -35 126 -126
312 -204 415 -172 228 -423 371 -723 411 -99 14 -186 12 -308 -4z"/>
<path d="M405 7876 c-91 -22 -183 -72 -249 -136 -111 -107 -163 -241 -153
-395 3 -44 51 -300 107 -570 55 -269 150 -728 210 -1020 358 -1743 319 -1561
380 -1739 262 -759 873 -1329 1622 -1511 223 -54 240 -55 1416 -55 934 0 1096
2 1151 15 231 55 381 254 381 505 0 239 -126 425 -340 502 l-65 23 -1050 5
c-1174 7 -1126 4 -1352 80 -412 138 -716 470 -848 926 -14 49 -53 222 -86 384
-33 162 -132 648 -220 1080 -88 432 -192 940 -230 1130 -88 430 -93 449 -137
535 -102 194 -323 293 -537 241z"/>
</g>
</svg>
